<mxfile host="app.diagrams.net" modified="2023-07-26T10:06:38.112Z" agent="Mozilla/5.0 (Windows NT 10.0; Win64; x64) AppleWebKit/537.36 (KHTML, like Gecko) Chrome/114.0.0.0 Safari/537.36" version="21.6.5" etag="VUXbyR-p4DP21V3SfNof" type="github">
  <diagram name="第 1 页" id="2SQP02Zgr2n5S7g7MMht">
    <mxGraphModel>
      <root>
        <mxCell id="0" />
        <mxCell id="1" parent="0" />
      </root>
    </mxGraphModel>
  </diagram>
</mxfile>
